<svg xmlns="http://www.w3.org/2000/svg" viewBox="0 0 487.71 77.74"><defs><style>.cls-1{fill:#4a494a;}.cls-2{fill:#4ec1b6;}</style></defs><title>Final-logoAsset 5</title><g id="Layer_2" data-name="Layer 2"><g id="Layer_1-2" data-name="Layer 1"><path class="cls-1" d="M30.88,13.6V0A34.61,34.61,0,0,0,3,48.41L14.37,41a21.45,21.45,0,0,1-1-6.49A21.22,21.22,0,0,1,30.88,13.6Z"/><path class="cls-2" d="M55.79,34.48a21.14,21.14,0,0,1-1.08,6.64l11.51,7.51A34.58,34.58,0,0,0,38.41,0V13.62A21.22,21.22,0,0,1,55.79,34.48Z"/><path class="cls-2" d="M34.57,55.69a21.14,21.14,0,0,1-16.63-8.07L6.75,54.92a34.55,34.55,0,0,0,55.64.2L51.11,47.75A21.17,21.17,0,0,1,34.57,55.69Z"/><path class="cls-1" d="M88.05,6.52h41.52v8.8H97.89V29.88H126v8.88H97.89v15H130v8.8H88.05Z"/><path class="cls-1" d="M138.15,41.66V41.5a21.81,21.81,0,0,1,22-22.08c7.92,0,12.88,3,16.88,7.28L171,33.18c-3-3-6.08-5.28-10.88-5.28-7,0-12.24,6.08-12.24,13.44v.16C147.84,49,153,55,160.48,55c4.56,0,7.84-2.08,11-5.2l5.84,5.76c-4.16,4.64-9,7.92-17.28,7.92A21.57,21.57,0,0,1,138.15,41.66Z"/><path class="cls-1" d="M209.65,41.58v-.16c0-12.08,8.56-22,20.64-22,13.44,0,20.24,10.56,20.24,22.72,0,.88-.08,1.76-.16,2.72h-31c1,6.88,5.92,10.72,12.16,10.72,4.72,0,8.08-1.76,11.44-5l5.68,5a21.37,21.37,0,0,1-17.28,7.92C219.09,63.5,209.65,54.62,209.65,41.58Zm31.28-3.12c-.64-6.24-4.32-11.12-10.72-11.12-5.92,0-10.08,4.56-11,11.12Z"/><path class="cls-1" d="M259.3,41.66V41.5a21.8,21.8,0,0,1,22-22.08c7.92,0,12.88,3,16.88,7.28l-6.08,6.48c-3-3-6.08-5.28-10.88-5.28-7,0-12.24,6.08-12.24,13.44v.16C269,49,274.18,55,281.62,55c4.56,0,7.84-2.08,11-5.2l5.84,5.76c-4.16,4.64-9,7.92-17.28,7.92A21.57,21.57,0,0,1,259.3,41.66Z"/><path class="cls-1" d="M363.07,41.66V41.5a21.8,21.8,0,0,1,22-22.08c7.92,0,12.88,3,16.88,7.28l-6.08,6.48c-3-3-6.08-5.28-10.88-5.28-7,0-12.24,6.08-12.24,13.44v.16C372.75,49,378,55,385.39,55c4.56,0,7.84-2.08,11-5.2l5.84,5.76c-4.16,4.64-9,7.92-17.28,7.92A21.57,21.57,0,0,1,363.07,41.66Z"/><path class="cls-1" d="M410.75,6.52h9.84v56h-9.84Z"/><path class="cls-1" d="M344.06,20.33h9.76V62.57h-9.76Z"/><path class="cls-1" d="M342.7,8.08a6.25,6.25,0,0,1,12.48,0,6.25,6.25,0,0,1-12.48,0Z"/><path class="cls-1" d="M311.72,51.1V28.86h-5.36V20.54h5.36V8.94h9.68v11.6h11.36v8.32H321.4V49.58c0,3.76,1.92,5.28,5.2,5.28a12.84,12.84,0,0,0,4.72-.87c-.05,0,1.28,7.35,1.28,7.35a16.74,16.74,0,0,1-8.72,2.16C316.76,63.5,311.72,60.38,311.72,51.1Z"/><path class="cls-1" d="M186.32,50.57V2.33H196v49c0,3,1.29,4.14,2.71,4.14a7.62,7.62,0,0,0,1.27-.08c.24,0,.52-.08.85-.15l1.32,7.4a15.5,15.5,0,0,1-5.59.91C189.31,63.5,186.32,58.86,186.32,50.57Z"/><path class="cls-1" d="M486.43,55.23a12.84,12.84,0,0,1-4.72.87,6.22,6.22,0,0,1-3.11-.7,28.83,28.83,0,0,0,8.95-20.93c0-16-12.44-29-29.33-29a28.94,28.94,0,0,0-29.33,29c0,16.05,12.47,29.05,29.33,29.05a29.51,29.51,0,0,0,11.31-2.23c2.17,2.47,5.49,3.45,9.46,3.45a16.74,16.74,0,0,0,8.72-2.16S486.38,55.22,486.43,55.23Zm-28.32-.89c-10.57,0-18.91-8.86-18.91-19.83S447.28,14.59,458,14.59c10.57,0,19.17,8.5,19.17,20.08,0,7.82-3.82,14.45-10.18,17.64l-.19,0v.06A19.8,19.8,0,0,1,458.11,54.34Z"/><text></text></g></g></svg>