<?xml version="1.0" encoding="UTF-8"?>
<svg width="260px" height="260px" viewBox="0 0 260 260" version="1.1" xmlns="http://www.w3.org/2000/svg" xmlns:xlink="http://www.w3.org/1999/xlink">
    <title>Group 2</title>
    <g id="Branding" stroke="none" stroke-width="1" fill="none" fill-rule="evenodd">
        <g id="Logo" transform="translate(-590.000000, -382.000000)">
            <g id="Group-2" transform="translate(590.000000, 382.000000)">
                <g id="Logo" transform="translate(49.000000, 49.000000)">
                    <path d="M118.318,113.4365 L145.415,129.0808 C130.639,148.5802 107.23,161.186 80.9,161.186 C54.5699,161.186 31.1609,148.5802 16.3849,129.0808 L43.4817,113.4365 C52.6451,123.7698 66.0176,130.286 80.9,130.286 C95.7824,130.286 109.155,123.7698 118.318,113.4365 Z M90.9,0 C130.837,4.93 161.8,39.021 161.8,80.286 C161.8,91.4529 159.533,102.0945 155.435,111.7716 L128.335,96.1254 C129.998,91.1485 130.9,85.8217 130.9,80.286 C130.9,56.115 113.711,35.927 90.9,31.288 L90.9,0 Z" id="Fill-1" fill="#4ec1b6"></path>
                    <path d="M70.9,0 L70.9,31.288 C48.0886,35.927 30.9,56.115 30.9,80.286 C30.9,85.8217 31.8016,91.1485 33.4653,96.1254 L6.3653,111.7716 C2.2674,102.0945 0,91.4529 0,80.286 C0,39.021 30.9628,4.93 70.9,0 Z" id="Fill-2" fill="#4a494a"></path>
                </g>
                <rect id="Rectangle" x="0" y="0" width="260" height="260"></rect>
            </g>
        </g>
    </g>
</svg>
